<?xml version="1.0" encoding="UTF-8" standalone="no"?>
<!-- Created with Inkscape (http://www.inkscape.org/) -->

<svg
   width="523.47913"
   height="508.56033"
   viewBox="0 0 523.47913 508.56033"
   version="1.1"
   id="svg1"
   inkscape:version="1.4 (86a8ad7, 2024-10-11)"
   sodipodi:docname="howie-logo.svg"
   inkscape:export-filename="howie-logo.svg"
   inkscape:export-xdpi="48"
   inkscape:export-ydpi="48"
   xmlns:inkscape="http://www.inkscape.org/namespaces/inkscape"
   xmlns:sodipodi="http://sodipodi.sourceforge.net/DTD/sodipodi-0.dtd"
   xmlns:xlink="http://www.w3.org/1999/xlink"
   xmlns="http://www.w3.org/2000/svg"
   xmlns:svg="http://www.w3.org/2000/svg">
  <sodipodi:namedview
     id="namedview1"
     pagecolor="#505050"
     bordercolor="#ffffff"
     borderopacity="1"
     inkscape:showpageshadow="0"
     inkscape:pageopacity="0"
     inkscape:pagecheckerboard="1"
     inkscape:deskcolor="#505050"
     inkscape:document-units="px"
     inkscape:zoom="1.4142136"
     inkscape:cx="203.2932"
     inkscape:cy="243.59829"
     inkscape:window-width="1920"
     inkscape:window-height="1017"
     inkscape:window-x="-8"
     inkscape:window-y="-8"
     inkscape:window-maximized="1"
     inkscape:current-layer="layer1" />
  <defs
     id="defs1">
    <linearGradient
       id="linearGradient36"
       inkscape:collect="always">
      <stop
         style="stop-color:#000000;stop-opacity:1;"
         offset="0"
         id="stop37" />
      <stop
         style="stop-color:#000000;stop-opacity:0;"
         offset="1"
         id="stop38" />
    </linearGradient>
    <linearGradient
       id="swatch25"
       inkscape:swatch="solid">
      <stop
         style="stop-color:#0fc3f1;stop-opacity:1;"
         offset="0"
         id="stop25" />
    </linearGradient>
    <linearGradient
       inkscape:collect="always"
       xlink:href="#swatch25"
       id="linearGradient25"
       x1="183.12578"
       y1="140.65681"
       x2="352.60547"
       y2="140.65681"
       gradientUnits="userSpaceOnUse" />
    <linearGradient
       inkscape:collect="always"
       xlink:href="#linearGradient36"
       id="linearGradient39"
       x1="177.26338"
       y1="140.65681"
       x2="358.46786"
       y2="140.65681"
       gradientUnits="userSpaceOnUse" />
  </defs>
  <g
     inkscape:label="Layer 1"
     inkscape:groupmode="layer"
     id="layer1"
     transform="translate(5.7395778,-1.7198324)">
    <text
       xml:space="preserve"
       style="font-style:normal;font-variant:normal;font-weight:normal;font-stretch:normal;font-size:380.586px;line-height:0;font-family:TypoGraphica;-inkscape-font-specification:TypoGraphica;font-variant-ligatures:normal;font-variant-position:normal;font-variant-caps:normal;font-variant-numeric:normal;font-variant-alternates:normal;font-variant-east-asian:normal;font-feature-settings:normal;font-variation-settings:normal;text-indent:0;text-align:start;text-decoration-line:none;text-decoration-style:solid;text-decoration-color:#000000;letter-spacing:normal;word-spacing:normal;text-transform:none;writing-mode:lr-tb;direction:ltr;text-orientation:mixed;dominant-baseline:auto;baseline-shift:baseline;text-anchor:start;white-space:normal;display:inline;opacity:1;fill:#5215ff;fill-opacity:1;stroke:none;stroke-width:3.725;stroke-linecap:square;stroke-linejoin:round;stroke-miterlimit:4;stroke-dasharray:none;stroke-dashoffset:0;stroke-opacity:1;stop-color:#000000;stop-opacity:1"
       x="183.12578"
       y="275.75742"
       id="text1"
       transform="scale(0.96156482,1.0399715)"
       inkscape:transform-center-x="-1.5701608"
       inkscape:transform-center-y="-109.72092"><tspan
         sodipodi:role="line"
         id="tspan1"
         x="183.12578"
         y="275.75742"
         style="font-style:normal;font-variant:normal;font-weight:normal;font-stretch:normal;font-size:380.586px;line-height:0;font-family:TypoGraphica;-inkscape-font-specification:TypoGraphica;font-variant-ligatures:normal;font-variant-position:normal;font-variant-caps:normal;font-variant-numeric:normal;font-variant-alternates:normal;font-variant-east-asian:normal;font-feature-settings:normal;font-variation-settings:normal;text-indent:0;text-align:start;text-decoration-line:none;text-decoration-style:solid;text-decoration-color:#000000;letter-spacing:normal;word-spacing:normal;text-transform:none;writing-mode:lr-tb;direction:ltr;text-orientation:mixed;dominant-baseline:auto;baseline-shift:baseline;white-space:normal;fill:#5215ff;fill-opacity:1;stroke:none;stroke-width:3.725;stroke-linecap:square;stroke-linejoin:round;stroke-miterlimit:4;stroke-dasharray:none;stroke-dashoffset:0;stroke-opacity:1;stop-color:#000000;stop-opacity:1">?</tspan></text>
    <path
       id="text2"
       style="font-style:normal;font-variant:normal;font-weight:normal;font-stretch:normal;font-size:380.586px;line-height:0;font-family:TypoGraphica;-inkscape-font-specification:TypoGraphica;font-variant-ligatures:normal;font-variant-position:normal;font-variant-caps:normal;font-variant-numeric:normal;font-variant-alternates:normal;font-variant-east-asian:normal;font-feature-settings:normal;font-variation-settings:normal;text-indent:0;text-align:start;text-decoration-line:none;text-decoration-style:solid;text-decoration-color:#000000;letter-spacing:normal;word-spacing:normal;text-transform:none;writing-mode:lr-tb;direction:ltr;text-orientation:mixed;dominant-baseline:auto;baseline-shift:baseline;text-anchor:start;white-space:normal;display:inline;opacity:1;vector-effect:none;fill:#8699bd;fill-opacity:1;stroke-width:11.7248;stroke-linecap:butt;stroke-linejoin:miter;stroke-miterlimit:4;stroke-dasharray:none;stroke-dashoffset:0;stroke-opacity:1;-inkscape-stroke:none;stop-color:#000000;stop-opacity:1"
       inkscape:transform-center-x="-95.80615"
       inkscape:transform-center-y="-53.500661"
       transform="matrix(0.48078241,0.83273956,-0.90064173,0.51998575,0,0)"
       d="m 280.57391,-290.00826 45.71529,31.21971 c 8.73415,-13.56581 19.51295,-20.25529 32.33543,-20.25529 6.87582,0 13.00789,2.04432 18.39705,6.31848 5.38916,4.27416 8.17576,9.66256 8.17576,15.79505 0,5.01749 -1.11467,9.29164 -3.15883,12.4508 -2.23,3.15916 -5.38983,6.13377 -9.47816,8.92127 l -6.13127,4.08719 -6.31912,4.27534 c -7.61915,5.0175 -13.75222,11.52135 -18.02638,19.51217 -4.45999,7.99082 -6.68963,19.13983 -6.68963,33.44897 l 6.8e-4,27.68896 57.98047,0.001 -3.7e-4,-21.37168 c 0,-5.20332 1.30132,-9.47691 3.90298,-13.00773 1.6725,-2.7875 5.38761,-6.13332 10.77677,-10.40748 l 6.8771,-5.20273 6.87534,-5.20368 c 8.73415,-6.68999 15.60954,-14.30809 20.62703,-23.04224 5.01749,-8.73415 7.62,-20.25595 7.62,-34.37926 0,-11.14998 -2.23165,-21.37122 -6.69164,-30.8487 -4.64583,-9.29165 -10.77738,-17.28217 -18.58237,-23.97216 -7.80499,-6.50415 -16.91116,-11.70749 -27.13198,-15.23832 -10.59248,-3.53082 -21.1853,-5.38879 -32.14945,-5.38879 -11.33581,0 -22.48459,1.67253 -33.07708,5.01753 -10.77831,3.53083 -20.44233,8.36077 -28.99065,14.86493 -8.73415,6.50415 -16.35281,14.86742 -22.85697,24.71657 z m 54.54393,188.92684 c 0.83865,0.47181 1.47594,0.94518 1.80126,1.438642 0.65101,-0.506562 1.35265,-0.956352 2.15178,-1.297502 1.73546,0.3852 3.63338,0.37399 5.20482,1.156341 0.70663,0.351821 1.13573,2.577767 1.2689,4.368312 0.92311,-0.791709 1.82749,-1.604567 2.81225,-2.317654 2.39058,-1.815293 5.3132,-4.726259 8.97018,-2.526179 2.94114,1.769416 0.96422,5.125765 0.006,7.018468 -1.99148,3.577007 -3.91081,7.221633 -6.38808,10.538291 -4.13685,5.538526 -9.90358,1.49558 -5.86432,-4.104202 0.0655,-0.09079 0.1261,-0.184243 0.19079,-0.275489 -0.82544,0.228066 -1.64761,0.27753 -2.44246,0.02768 -1.31589,-0.413628 -2.20722,-1.564316 -3.31029,-2.346122 -0.44777,-0.694949 -0.70915,-1.421079 -0.887,-2.162833 -0.77658,0.702058 -1.55704,1.361449 -2.15065,1.74267 -0.60281,0.387135 -1.21401,1.03426 -1.94303,0.955701 -0.45135,-0.04864 -0.88658,-0.157526 -1.31627,-0.288449 0.002,0.06525 0.008,0.130452 0.009,0.195712 0.1006,2.120207 0.24515,4.240917 0.47304,6.352769 0.25938,1.7591 0.69305,3.493476 1.30834,5.176566 0.52566,1.51866 0.95274,3.089416 1.8138,4.483535 0.53847,0.828494 1.3098,1.365009 2.16927,1.923518 1.20817,0.838176 2.64493,1.373461 3.9112,2.131257 1.3477,0.711437 2.69727,1.420444 4.06022,2.106712 1.50577,0.75181 3.02053,1.490809 4.58538,2.133334 1.7845,0.70968 3.61927,1.310556 5.51659,1.708778 1.83492,0.356455 3.6721,0.703058 5.50429,1.071154 0.73143,-0.220475 1.41068,-0.395151 1.87245,-0.527137 1.11863,-0.264545 2.15268,-0.670981 3.11151,-1.264435 1.71183,-1.014412 3.51067,-1.917712 5.34496,-2.726531 2.25008,-0.876311 4.53105,-1.675523 6.79017,-2.531895 2.57619,-0.908133 5.20402,-1.796856 7.48274,-3.261659 1.69316,-1.144761 3.38332,-2.41382 4.3786,-4.15754 0.7505,-1.556569 1.37379,-3.158747 1.75863,-4.829661 0.16686,-0.720853 0.31079,-1.447367 0.4496,-2.173637 -0.1976,-0.105499 -0.3952,-0.210905 -0.5928,-0.316452 -2.74033,-1.463955 -5.4813,-2.929211 -8.22059,-4.394836 -3.50225,-1.874573 -7.0027,-3.74875 -10.49491,-5.639282 -2.87827,-1.563017 -5.75955,-3.12629 -8.5747,-4.785548 -3.00849,-1.782369 -5.98425,-3.613149 -8.83731,-5.604499 -2.76598,-1.90544 -5.47104,-3.89361 -8.4259,-5.5497 -1.32547,-0.7761 -2.67987,-1.51943 -4.09275,-2.15227 -0.0236,0.0204 -0.046,0.0422 -0.0696,0.0626 -1.68992,1.51682 -3.23083,3.16812 -4.67186,4.89011 -1.43557,1.77252 -2.96769,3.4745 -4.32189,5.30247 -0.11256,0.14891 -0.22726,0.29909 -0.34128,0.44888 z m 2.77482,4.146461 c -0.0399,-9.29e-4 -0.0544,0.595367 0.11851,0.711673 0.008,0.0055 0.0171,0.01019 0.0254,0.01571 -0.0368,-0.229893 -0.0732,-0.458971 -0.12468,-0.686774 -0.006,-0.02765 -0.0135,-0.04048 -0.0192,-0.04061 z m 4.58195,3.63 c -0.24746,0.114955 0.52958,-0.168829 0.75584,-0.31649 0.0528,-0.03447 0.10218,-0.07325 0.15446,-0.108384 -0.19704,0.08106 -0.46093,0.216122 -0.9103,0.424874 z m 20.79808,-24.709671 c 2.56023,1.49138 5.12114,2.98175 7.68537,4.46695 6.85398,3.95424 13.77572,7.80778 20.71273,11.63592 -0.094,-0.18133 -0.17858,-0.36541 -0.28511,-0.54254 -1.23283,-1.9663 -2.49758,-3.91996 -3.97822,-5.73871 -1.60744,-1.88133 -3.29747,-3.71453 -5.547,-4.96922 -3.62591,-1.94341 -7.52071,-3.37577 -11.51452,-4.53978 -0.90527,-0.24912 -1.81597,-0.4995 -2.73302,-0.73898 -0.0471,0.002 -0.0943,0.003 -0.14137,0.005 -1.39795,0.16101 -2.7976,0.29691 -4.19886,0.42158 z" />
    <path
       id="text3"
       style="font-style:normal;font-variant:normal;font-weight:normal;font-stretch:normal;font-size:380.586px;line-height:0;font-family:TypoGraphica;-inkscape-font-specification:TypoGraphica;font-variant-ligatures:normal;font-variant-position:normal;font-variant-caps:normal;font-variant-numeric:normal;font-variant-alternates:normal;font-variant-east-asian:normal;font-feature-settings:normal;font-variation-settings:normal;text-indent:0;text-align:start;text-decoration-line:none;text-decoration-style:solid;text-decoration-color:#000000;letter-spacing:normal;word-spacing:normal;text-transform:none;writing-mode:lr-tb;direction:ltr;text-orientation:mixed;dominant-baseline:auto;baseline-shift:baseline;text-anchor:start;white-space:normal;display:inline;opacity:1;vector-effect:none;fill:#8699bd;fill-opacity:1;stroke-width:11.7248;stroke-linecap:butt;stroke-linejoin:miter;stroke-miterlimit:4;stroke-dasharray:none;stroke-dashoffset:0;stroke-opacity:1;-inkscape-stroke:none;stop-color:#000000;stop-opacity:1"
       inkscape:transform-center-x="-94.23599"
       inkscape:transform-center-y="56.22023"
       transform="matrix(-0.48078241,0.83273956,-0.90064173,-0.51998574,0,0)"
       d="m 72.88185,-318.88065 c 0.861241,-0.43563 1.62326,-0.70925 2.248116,-0.723 -0.148962,-0.77457 -0.219435,-1.56129 -0.139408,-2.37175 1.22853,-1.19705 2.16699,-2.72238 3.685493,-3.58951 0.682845,-0.38991 2.982307,0.37947 4.725994,1.16811 -0.279994,-1.13502 -0.58916,-2.26562 -0.76469,-3.41069 -0.504985,-2.82187 -1.770207,-6.61759 2.118967,-8.44581 3.127888,-1.47036 5.283595,1.79003 6.576669,3.50462 2.354635,3.38315 4.808682,6.74233 6.676564,10.3843 3.119195,6.08177 -3.550965,8.67791 -6.776327,2.64365 -0.0523,-0.0978 -0.109519,-0.19309 -0.162641,-0.29051 -0.199101,0.77498 -0.563866,1.45805 -1.195298,1.96959 -1.045369,0.84687 -2.568814,0.98524 -3.852622,1.4776 -0.874804,0.0111 -1.685619,-0.1427 -2.469299,-0.37117 0.269286,0.97287 0.496669,1.9275 0.556934,2.59343 0.0612,0.67626 0.361725,1.48923 -0.07637,2.03371 -0.270976,0.33676 -0.586369,0.63452 -0.924515,0.91206 0.06075,0.0304 0.123493,0.0575 0.18409,0.0882 2.036173,0.97955 4.094796,1.92415 6.186786,2.79761 1.777341,0.67185 3.618662,1.19178 5.50276,1.54065 1.685271,0.33841 3.370045,0.78181 5.106367,0.78939 1.04524,-0.0169 1.93342,-0.36629 2.88628,-0.77524 1.38916,-0.54834 2.60891,-1.43115 3.95183,-2.0662 1.34021,-0.72343 2.67908,-1.44957 4.00334,-2.1978 1.45706,-0.82982 2.90662,-1.67323 4.29086,-2.605 1.55697,-1.07407 3.03716,-2.24279 4.35881,-3.56292 1.25133,-1.29106 2.49456,-2.58884 3.75543,-3.87189 0.15921,-0.69592 0.33522,-1.32716 0.44249,-1.7629 0.31153,-1.028 0.44787,-2.05922 0.37143,-3.12371 -0.0942,-1.87793 -0.0409,-3.76997 0.1187,-5.64316 0.30425,-2.23986 0.69615,-4.46591 1.0236,-6.70305 0.4375,-2.51691 0.919,-5.06546 0.68637,-7.62251 -0.22566,-1.92815 -0.56923,-3.91605 -1.70483,-5.58486 -1.08269,-1.37924 -2.27172,-2.67941 -3.64435,-3.82303 -0.59174,-0.49403 -1.20027,-0.97254 -1.81111,-1.44682 -0.19762,0.10547 -0.39514,0.21099 -0.59281,0.31645 -2.74136,1.46229 -5.48427,2.92445 -8.22668,4.38508 -3.50692,1.86707 -7.01259,3.73292 -10.529442,5.58398 -2.903118,1.52321 -5.807985,3.04871 -8.769692,4.47327 -3.173692,1.51781 -6.376349,2.98521 -9.668066,4.27407 -3.1677,1.26209 -6.382437,2.43404 -9.411028,3.97205 -1.389656,0.6733 -2.763096,1.38614 -4.062281,2.20106 0.0074,0.0291 0.01653,0.0579 0.02385,0.087 0.575758,2.11158 1.351986,4.17109 2.244352,6.18597 0.942431,2.03576 1.770518,4.11357 2.805573,6.11191 0.08319,0.16458 0.166513,0.33152 0.249804,0.49771 z m 5.271152,-0.14865 c -0.02084,0.0315 0.530439,0.34125 0.725839,0.26094 0.0093,-0.004 0.0181,-0.009 0.0274,-0.0125 -0.233736,-0.0855 -0.466493,-0.17087 -0.7056,-0.24356 -0.02902,-0.009 -0.04467,-0.009 -0.04764,-0.005 z m 5.690989,-1.85393 c -0.01606,0.25563 0.106653,-0.50846 0.08148,-0.76347 -0.0059,-0.0595 -0.01751,-0.11844 -0.02429,-0.17787 -0.02259,0.19831 -0.02803,0.47714 -0.05719,0.94134 z m -12.730599,-29.03795 c 2.673396,-1.29241 5.347071,-2.58437 8.012138,-3.89104 7.130711,-3.5111 14.200946,-7.12679 21.25506,-10.76741 -0.21685,-0.0154 -0.431553,-0.0397 -0.650718,-0.043 -2.458139,0.004 -4.920397,0.0399 -7.364229,0.31614 -2.565851,0.34646 -5.127917,0.78313 -7.427878,1.95705 -3.633238,1.93169 -6.92224,4.33421 -10.009407,6.95017 -0.685978,0.60033 -1.37584,1.20436 -2.05867,1.81894 -0.02202,0.0385 -0.0442,0.0771 -0.06621,0.11558 -0.543638,1.18997 -1.1113,2.36888 -1.690088,3.54355 z m -1.953001,-42.7847 57.981489,5.3e-4 3.7e-4,-21.37168 c 0,-5.20333 1.30049,-9.4776 3.90215,-13.00843 1.6725,-2.78749 5.38967,-6.13144 10.77883,-10.4056 l 6.87586,-5.20368 6.8741,-5.20274 c 8.73415,-6.68999 15.61083,-14.30906 20.62832,-23.04321 5.01749,-8.73415 7.61992,-20.25696 7.61992,-34.38027 0,-11.14998 -2.23097,-21.37063 -6.69097,-30.84811 -4.64582,-9.29165 -10.7785,-17.28267 -18.58349,-23.97266 -7.80498,-6.50416 -16.91028,-11.70656 -27.1311,-15.23738 -10.59248,-3.53083 -21.1843,-5.38965 -32.148449,-5.38965 -11.335814,0 -22.487412,1.67306 -33.079894,5.01805 -10.778314,3.53083 -20.441501,8.36188 -28.98982,14.86603 -8.734151,6.50416 -16.351584,14.8667 -22.855739,24.71585 l 45.713649,31.21928 c 8.734151,-13.56581 19.513123,-20.25412 32.335601,-20.25412 6.875821,0 13.008282,2.04355 18.397442,6.31771 5.38915,4.27416 8.17723,9.66373 8.17723,15.79622 0,5.01749 -1.11619,9.29063 -3.16035,12.44979 -2.23,3.15916 -5.38906,6.13401 -9.47739,8.9215 l -6.13297,4.08714 -6.318255,4.27496 c -7.619153,5.01749 -13.751486,11.52045 -18.025646,19.51127 -4.459992,7.99082 -6.690199,19.1411 -6.690199,33.45024 z" />
    <path
       id="text4"
       style="font-style:normal;font-variant:normal;font-weight:normal;font-stretch:normal;font-size:380.586px;line-height:0;font-family:TypoGraphica;-inkscape-font-specification:TypoGraphica;font-variant-ligatures:normal;font-variant-position:normal;font-variant-caps:normal;font-variant-numeric:normal;font-variant-alternates:normal;font-variant-east-asian:normal;font-feature-settings:normal;font-variation-settings:normal;text-indent:0;text-align:start;text-decoration-line:none;text-decoration-style:solid;text-decoration-color:#000000;letter-spacing:normal;word-spacing:normal;text-transform:none;writing-mode:lr-tb;direction:ltr;text-orientation:mixed;dominant-baseline:auto;baseline-shift:baseline;text-anchor:start;white-space:normal;display:inline;opacity:1;vector-effect:none;fill:#8699bd;fill-opacity:1;stroke-width:11.7248;stroke-linecap:butt;stroke-linejoin:miter;stroke-miterlimit:4;stroke-dasharray:none;stroke-dashoffset:0;stroke-opacity:1;-inkscape-stroke:none;stop-color:#000000;stop-opacity:1"
       inkscape:transform-center-x="1.5701868"
       inkscape:transform-center-y="109.7209"
       transform="scale(-0.96156482,-1.0399715)"
       d="m -262.23599,-217.79923 c 0.0226,-0.90744 0.14727,-1.65442 0.44686,-2.16164 -0.79998,-0.26801 -1.57209,-0.60494 -2.29119,-1.07425 -0.50693,-1.58224 -1.4664,-3.09637 -1.51933,-4.74585 -0.0238,-0.74173 1.84658,-2.19829 3.45709,-3.2002 -1.2031,-0.34331 -2.41665,-0.66105 -3.57693,-1.09303 -2.89557,-1.00658 -7.08342,-1.89133 -6.85122,-5.91964 0.18675,-3.23978 4.31842,-3.33573 6.57091,-3.51384 4.34612,-0.19386 8.71949,-0.47931 13.06464,-0.154 7.25604,0.54325 6.35262,7.18233 -0.912,6.74786 -0.11778,-0.007 -0.23562,-0.009 -0.35343,-0.015 0.62633,0.54692 1.08374,1.18054 1.24715,1.94191 0.27053,1.2605 -0.36159,2.54956 -0.54233,3.82372 -0.42703,0.70602 -0.97646,1.27839 -1.5823,1.79167 1.04587,0.27081 2.05371,0.56605 2.70759,0.85076 0.66401,0.28912 1.57573,0.45497 1.86666,1.078 0.17995,0.38536 0.30114,0.78679 0.39202,1.19633 0.0589,-0.0334 0.11564,-0.0701 0.17469,-0.1033 1.93557,-1.14065 3.84964,-2.31676 5.71375,-3.55516 1.51795,-1.08725 2.92561,-2.30169 4.19441,-3.63591 1.15961,-1.18025 2.41731,-2.3076 3.29257,-3.69414 0.50677,-0.84542 0.62362,-1.73131 0.71701,-2.69877 0.18099,-1.38651 -0.036,-2.80461 0.0406,-4.19745 -0.007,-1.43487 -0.0182,-2.87002 -0.0569,-4.30451 -0.0487,-1.58163 -0.11391,-3.16404 -0.29452,-4.73833 -0.22754,-1.78376 -0.58212,-3.55335 -1.15778,-5.27171 -0.5836,-1.64751 -1.17754,-3.29189 -1.74886,-4.94304 -0.57222,-0.47544 -1.07545,-0.932 -1.42996,-1.23576 -0.8071,-0.76346 -1.70481,-1.38824 -2.74008,-1.85928 -1.80606,-0.86351 -3.55155,-1.85226 -5.22627,-2.91662 -1.94582,-1.36356 -3.83488,-2.7904 -5.76656,-4.17116 -2.13869,-1.60878 -4.28502,-3.26861 -6.79637,-4.36085 -1.91881,-0.78339 -3.95255,-1.50223 -6.08343,-1.42732 -1.8332,0.17733 -3.64551,0.47933 -5.40298,1.00663 -0.75861,0.22682 -1.51105,0.47483 -2.26072,0.72681 -10e-6,0.21098 7e-5,0.4219 0,0.63291 -10e-4,2.92624 -0.003,5.85366 -0.006,8.77991 -0.005,3.74165 -0.01,7.48167 -0.0345,11.22326 -0.0249,3.08623 -0.0484,6.17501 -0.19499,9.25882 -0.1652,3.30019 -0.3921,6.59836 -0.83076,9.87858 -0.40172,3.16753 -0.9114,6.32765 -0.98513,9.52174 -0.0638,1.44112 -0.14929,2.89304 -0.0386,4.33268 0.0541,0.0151 0.10847,0.0299 0.16249,0.0451 2.26568,0.59477 4.58281,1.00297 6.91622,1.29586 2.378,0.26325 4.7382,0.63907 7.12746,0.80944 0.19575,0.0157 0.39377,0.0324 0.59108,0.0488 z m 2.49633,-4.29511 c 0.0191,0.0324 0.58486,-0.25411 0.60733,-0.45074 0.001,-0.009 0.001,-0.0188 0.002,-0.0282 -0.19692,0.14443 -0.39329,0.28811 -0.58092,0.44323 -0.0228,0.0188 -0.0312,0.031 -0.0284,0.0357 z m 1.10904,-5.48393 c 0.2314,0.14068 -0.42293,-0.33963 -0.67436,-0.44697 -0.0587,-0.0251 -0.1197,-0.0452 -0.17875,-0.0695 0.17445,0.11724 0.43289,0.26101 0.85311,0.51646 z m -33.5594,-4.31953 c 0.12457,-2.78877 0.24879,-5.57756 0.35749,-8.36674 0.27674,-7.46533 0.42523,-14.93456 0.54233,-22.40333 -0.12284,0.16594 -0.25297,0.3257 -0.36561,0.49956 -1.22531,1.97033 -2.42281,3.95989 -3.386,6.05486 -0.95842,2.22779 -1.83045,4.49765 -1.88089,6.92627 -0.007,3.8751 0.59848,7.70997 1.50512,11.48995 0.21929,0.84944 0.44013,1.70386 0.67435,2.55791 0.025,0.0369 0.0501,0.0739 0.0752,0.1108 0.84422,1.0321 1.66582,2.07807 2.47805,3.13072 z m 55.65067,-70.70694 v -21.3704 c 0,-5.20332 1.30026,-9.47847 3.90192,-13.00929 1.6725,-2.7875 5.39039,-6.13215 10.77955,-10.40631 l 6.87559,-5.20222 6.87559,-5.20409 c 8.73415,-6.68999 15.60929,-14.3096 20.62678,-23.04375 5.01749,-8.73416 7.61901,-20.25452 7.61901,-34.37782 0,-11.14998 -2.22873,-21.37147 -6.68872,-30.84896 -4.64583,-9.29165 -10.77841,-17.28152 -18.5834,-23.97151 -7.80498,-6.50415 -16.91188,-11.70772 -27.13269,-15.23855 -10.59248,-3.53082 -21.18357,-5.39002 -32.14771,-5.39002 -11.33582,0 -22.48552,1.67318 -33.078,5.01817 -10.77832,3.53083 -20.44292,8.36254 -28.99124,14.86669 -8.73415,6.50416 -16.35287,14.86607 -22.85703,24.71522 l 45.71406,31.22081 c 8.73415,-13.56581 19.51414,-20.25671 32.33661,-20.25671 6.87582,0 13.00737,2.04362 18.39653,6.31778 5.38916,4.27416 8.17759,9.66384 8.17759,15.79633 0,5.01749 -1.11638,9.29235 -3.16054,12.45151 -2.23,3.15916 -5.38923,6.1314 -9.47755,8.91889 l -6.13218,4.08853 -6.31701,4.27446 c -7.61916,5.01749 -13.75269,11.52218 -18.02685,19.513 -4.45999,7.99082 -6.69076,19.14092 -6.69076,33.45006 v 27.68818 z" />
    <path
       id="text5"
       style="font-style:normal;font-variant:normal;font-weight:normal;font-stretch:normal;font-size:380.586px;line-height:0;font-family:TypoGraphica;-inkscape-font-specification:TypoGraphica;font-variant-ligatures:normal;font-variant-position:normal;font-variant-caps:normal;font-variant-numeric:normal;font-variant-alternates:normal;font-variant-east-asian:normal;font-feature-settings:normal;font-variation-settings:normal;text-indent:0;text-align:start;text-decoration-line:none;text-decoration-style:solid;text-decoration-color:#000000;letter-spacing:normal;word-spacing:normal;text-transform:none;writing-mode:lr-tb;direction:ltr;text-orientation:mixed;dominant-baseline:auto;baseline-shift:baseline;text-anchor:start;white-space:normal;display:inline;opacity:1;vector-effect:none;fill:#8699bd;fill-opacity:1;stroke-width:11.7248;stroke-linecap:butt;stroke-linejoin:miter;stroke-miterlimit:4;stroke-dasharray:none;stroke-dashoffset:0;stroke-opacity:1;-inkscape-stroke:none;stop-color:#000000;stop-opacity:1"
       inkscape:transform-center-x="95.806187"
       inkscape:transform-center-y="53.500661"
       transform="matrix(-0.48078241,-0.83273956,0.90064173,-0.51998575,0,0)"
       d="m -335.11784,101.08142 c -0.83865,-0.47181 -1.47594,-0.94518 -1.80126,-1.438642 -0.65101,0.506562 -1.35265,0.956352 -2.15178,1.297502 -1.73546,-0.3852 -3.63338,-0.37399 -5.20482,-1.156341 -0.70663,-0.351821 -1.13573,-2.577767 -1.2689,-4.368312 -0.92311,0.791709 -1.82749,1.604567 -2.81225,2.317654 -2.39058,1.815293 -5.3132,4.726259 -8.97018,2.526179 -2.94114,-1.769416 -0.96422,-5.125765 -0.006,-7.018468 1.99148,-3.577007 3.91081,-7.221633 6.38808,-10.538291 4.13685,-5.538526 9.90358,-1.49558 5.86432,4.104202 -0.0655,0.09079 -0.1261,0.184243 -0.19079,0.275489 0.82544,-0.228066 1.64761,-0.27753 2.44246,-0.02768 1.31589,0.413628 2.20722,1.564316 3.31029,2.346122 0.44777,0.694949 0.70915,1.421079 0.887,2.162833 0.77658,-0.702058 1.55704,-1.361449 2.15065,-1.74267 0.60281,-0.387135 1.21401,-1.03426 1.94303,-0.955701 0.45122,0.04863 0.88665,0.157637 1.31627,0.288449 -0.002,-0.06525 -0.008,-0.130452 -0.009,-0.195712 -0.1006,-2.120207 -0.24515,-4.240917 -0.47304,-6.352769 -0.25938,-1.7591 -0.69305,-3.493476 -1.30834,-5.176566 -0.52566,-1.51866 -0.95274,-3.089416 -1.8138,-4.483535 -0.53847,-0.828494 -1.3098,-1.365009 -2.16927,-1.923518 -1.20817,-0.838176 -2.64493,-1.373461 -3.9112,-2.131257 -1.3477,-0.711437 -2.69727,-1.420444 -4.06022,-2.106712 -1.50577,-0.75181 -3.02053,-1.490809 -4.58538,-2.133334 -1.7845,-0.70968 -3.61927,-1.310556 -5.51659,-1.708778 -1.83492,-0.356455 -3.6721,-0.703058 -5.50429,-1.071154 -0.73143,0.220475 -1.41068,0.395151 -1.87245,0.527137 -1.11863,0.264545 -2.15268,0.670981 -3.11151,1.264435 -1.71183,1.014412 -3.51067,1.917712 -5.34496,2.726531 -2.25008,0.876311 -4.53105,1.675523 -6.79017,2.531895 -2.57619,0.908133 -5.20402,1.796856 -7.48274,3.261659 -1.69316,1.144761 -3.38332,2.41382 -4.3786,4.15754 -0.7505,1.556569 -1.37379,3.158747 -1.75863,4.829661 -0.16686,0.720853 -0.31079,1.447367 -0.4496,2.173637 0.1976,0.105499 0.3952,0.210904 0.5928,0.316452 2.74033,1.463955 5.4813,2.929211 8.22059,4.394836 3.50225,1.874573 7.0027,3.74875 10.49491,5.639282 2.87827,1.563017 5.75955,3.12629 8.5747,4.785548 3.00849,1.782369 5.98425,3.613149 8.83731,5.604499 2.76598,1.90544 5.47104,3.89361 8.4259,5.5497 1.32547,0.7761 2.67987,1.51943 4.09275,2.15227 0.0236,-0.0204 0.046,-0.0422 0.0696,-0.0626 1.68992,-1.51682 3.23083,-3.16812 4.67186,-4.89011 1.43557,-1.77252 2.96769,-3.4745 4.32189,-5.30247 0.11256,-0.14891 0.22726,-0.29909 0.34128,-0.44888 z m -2.77482,-4.146461 c 0.0399,9.29e-4 0.0544,-0.595367 -0.11851,-0.711673 -0.008,-0.0055 -0.0171,-0.01019 -0.0254,-0.01571 0.0368,0.229893 0.0732,0.458971 0.12468,0.686774 0.006,0.02765 0.0135,0.04048 0.0192,0.04061 z m -4.58195,-3.63 c 0.24746,-0.114955 -0.52958,0.168829 -0.75584,0.31649 -0.0528,0.03447 -0.10218,0.07325 -0.15446,0.108384 0.19704,-0.08106 0.46093,-0.216122 0.9103,-0.424874 z m -20.80085,24.710351 c -2.55907,-1.49197 -5.11893,-2.98275 -7.6826,-4.46763 -6.85398,-3.95424 -13.77572,-7.80778 -20.71273,-11.63592 0.094,0.18133 0.17858,0.36541 0.28511,0.54254 1.23283,1.9663 2.49758,3.91996 3.97822,5.73871 1.60744,1.88133 3.29747,3.71453 5.547,4.96922 3.62591,1.94341 7.52071,3.37577 11.51452,4.53978 0.90527,0.24912 1.81597,0.4995 2.73302,0.73898 0.0471,-0.002 0.0943,-0.003 0.14137,-0.005 1.39702,-0.1609 2.79576,-0.29628 4.19609,-0.4209 z m 76.38007,-159.370381 c 0.68526,-1.057288 1.34113,-2.131794 1.96832,-3.223563 5.01749,-8.734152 7.61999,-20.255948 7.61999,-34.379256 0,-11.149981 -2.22989,-21.37028 -6.68988,-30.84776 -4.64583,-9.29166 -10.77914,-17.28311 -18.58413,-23.9731 -7.80498,-6.50416 -16.91116,-11.70749 -27.13197,-15.23832 -10.59248,-3.53083 -21.18531,-5.3888 -32.14946,-5.3888 -11.33581,0 -22.48459,1.67254 -33.07707,5.01753 -10.77832,3.53083 -20.44335,8.36241 -28.99167,14.86656 -8.73415,6.50416 -16.35281,14.86742 -22.85697,24.71657 l 45.71529,31.219713 c 8.73415,-13.56581 19.51295,-20.255287 32.33543,-20.255287 6.87582,0 13.00891,2.042689 18.39806,6.316848 5.38916,4.274159 8.17475,9.664191 8.17475,15.79668 0,5.017491 -1.11467,9.291638 -3.15884,12.450799 -2.22999,3.159161 -5.38881,6.132145 -9.47714,8.91964 l -6.13229,4.088822 -6.3181,4.273715 c -7.61915,5.017492 -13.75222,11.521343 -18.02638,19.512163 -4.45999,7.990819 -6.68963,19.1398286 -6.68963,33.4489702 l -3.3e-4,27.6905848 57.98149,-5.27e-4 -0.001,-21.370054 c 0,-5.2033232 1.30132,-9.4769113 3.90298,-13.0077384 1.6725,-2.7874951 5.38937,-6.1323789 10.77852,-10.4065376 l 6.87534,-5.203673 6.87534,-5.203673 c 7.64238,-5.85374 13.86292,-12.419288 18.65974,-19.820306 z" />
    <path
       id="text6"
       style="font-style:normal;font-variant:normal;font-weight:normal;font-stretch:normal;font-size:380.586px;line-height:0;font-family:TypoGraphica;-inkscape-font-specification:TypoGraphica;font-variant-ligatures:normal;font-variant-position:normal;font-variant-caps:normal;font-variant-numeric:normal;font-variant-alternates:normal;font-variant-east-asian:normal;font-feature-settings:normal;font-variation-settings:normal;text-indent:0;text-align:start;text-decoration-line:none;text-decoration-style:solid;text-decoration-color:#000000;letter-spacing:normal;word-spacing:normal;text-transform:none;writing-mode:lr-tb;direction:ltr;text-orientation:mixed;dominant-baseline:auto;baseline-shift:baseline;text-anchor:start;white-space:normal;display:inline;opacity:1;vector-effect:none;fill:#8699bd;fill-opacity:1;stroke-width:11.7248;stroke-linecap:butt;stroke-linejoin:miter;stroke-miterlimit:4;stroke-dasharray:none;stroke-dashoffset:0;stroke-opacity:1;-inkscape-stroke:none;stop-color:#000000;stop-opacity:1"
       inkscape:transform-center-x="94.236009"
       inkscape:transform-center-y="-56.220251"
       transform="matrix(0.48078241,-0.83273956,0.90064173,0.51998574,0,0)"
       d="m -21.530311,129.63033 c -4.050578,-6.48092 -8.96435,-12.23012 -14.81809,-17.24762 -7.804986,-6.50415 -16.911303,-11.70818 -27.132118,-15.239003 -10.592482,-3.530827 -21.184304,-5.389642 -32.148452,-5.389642 -11.335809,0 -22.485649,1.672117 -33.078129,5.017111 -10.77832,3.530824 -20.44225,8.364444 -28.99057,14.868594 -8.73415,6.50416 -16.3526,14.86507 -22.85675,24.71422 l 45.71466,31.22091 c 8.73415,-13.56581 19.51211,-20.25575 32.33459,-20.25575 6.875802,0 13.008277,2.04355 18.397434,6.31771 5.389158,4.27416 8.177239,9.66373 8.177239,15.79622 0,5.01749 -1.115178,9.29226 -3.159341,12.45142 -2.229996,3.15916 -5.390078,6.13238 -9.478404,8.91987 l -6.131956,4.08877 -6.317512,4.27239 c -7.61915,5.01749 -13.75223,11.52301 -18.02639,19.51383 -4.45999,7.99082 -6.6902,19.14111 -6.6902,33.45025 l 0.001,27.68802 57.978716,-1.6e-4 0.0014,-21.37006 c 0,-5.20332 1.300491,-9.47759 3.902153,-13.00842 1.672497,-2.7875 5.38865,-6.13307 10.777808,-10.40723 l 6.87586,-5.20368 6.87586,-5.20368 c 8.734151,-6.68999 15.60907,-14.30812 20.626562,-23.04227 5.017491,-8.73415 7.619918,-20.25696 7.619918,-34.38027 0,-11.14998 -2.229957,-21.369 -6.689949,-30.84649 -1.161457,-2.32291 -2.415206,-4.56473 -3.765399,-6.72504 z M -72.88185,318.88065 c -0.861241,0.43563 -1.62326,0.70925 -2.248116,0.723 0.148962,0.77457 0.219435,1.56129 0.139408,2.37175 -1.22853,1.19705 -2.16699,2.72238 -3.685493,3.58951 -0.682845,0.38991 -2.982307,-0.37947 -4.725994,-1.16811 0.279994,1.13502 0.58916,2.26562 0.76469,3.41069 0.504985,2.82187 1.770207,6.61759 -2.118967,8.44581 -3.127888,1.47036 -5.283595,-1.79003 -6.576669,-3.50462 -2.354635,-3.38315 -4.808682,-6.74233 -6.676564,-10.3843 -3.119195,-6.08177 3.550965,-8.67791 6.776327,-2.64365 0.0523,0.0978 0.109519,0.19309 0.162641,0.29051 0.199101,-0.77498 0.563866,-1.45805 1.195298,-1.96959 1.045369,-0.84687 2.568814,-0.98524 3.852622,-1.4776 0.874804,-0.0111 1.685619,0.1427 2.469299,0.37117 -0.269286,-0.97287 -0.496669,-1.9275 -0.556934,-2.59343 -0.0612,-0.67626 -0.361725,-1.48923 0.07637,-2.03371 0.270976,-0.33676 0.586369,-0.63452 0.924515,-0.91206 -0.06075,-0.0304 -0.123493,-0.0575 -0.18409,-0.0882 -2.036173,-0.97955 -4.094796,-1.92415 -6.186786,-2.79761 -1.777341,-0.67185 -3.618662,-1.19178 -5.50276,-1.54065 -1.685271,-0.33841 -3.370045,-0.78181 -5.106367,-0.78939 -1.04524,0.0169 -1.93342,0.36629 -2.88628,0.77524 -1.38916,0.54834 -2.60891,1.43115 -3.95183,2.0662 -1.34021,0.72343 -2.67908,1.44957 -4.00334,2.1978 -1.45706,0.82982 -2.90662,1.67323 -4.29086,2.605 -1.55697,1.07407 -3.03716,2.24279 -4.35881,3.56292 -1.25133,1.29106 -2.49456,2.58884 -3.75543,3.87189 -0.15921,0.69592 -0.33522,1.32716 -0.44249,1.7629 -0.31153,1.028 -0.44787,2.05922 -0.37143,3.12371 0.0942,1.87793 0.0409,3.76997 -0.1187,5.64316 -0.30425,2.23986 -0.69615,4.46591 -1.0236,6.70305 -0.4375,2.51691 -0.919,5.06546 -0.68637,7.62251 0.22566,1.92815 0.56923,3.91605 1.70483,5.58486 1.08269,1.37924 2.27172,2.67941 3.64435,3.82303 0.59174,0.49403 1.20027,0.97254 1.81111,1.44682 0.19762,-0.10547 0.39515,-0.21099 0.59281,-0.31645 2.74136,-1.46229 5.48427,-2.92445 8.22668,-4.38508 3.50692,-1.86707 7.01259,-3.73292 10.529442,-5.58398 2.903118,-1.52321 5.807985,-3.04871 8.769692,-4.47327 3.173692,-1.51781 6.376349,-2.98521 9.668066,-4.27407 3.1677,-1.26209 6.382437,-2.43404 9.411028,-3.97205 1.389656,-0.6733 2.763096,-1.38614 4.062281,-2.20106 -0.0074,-0.0291 -0.01653,-0.0579 -0.02385,-0.087 -0.575758,-2.11158 -1.351986,-4.17109 -2.244352,-6.18597 -0.942431,-2.03576 -1.770518,-4.11357 -2.805573,-6.11191 -0.08319,-0.16458 -0.166513,-0.33152 -0.249804,-0.49771 z m -5.271152,0.14865 c 0.02084,-0.0315 -0.530439,-0.34125 -0.725839,-0.26094 -0.0093,0.004 -0.0181,0.009 -0.0274,0.0125 0.233736,0.0855 0.466493,0.17087 0.7056,0.24356 0.02902,0.009 0.04467,0.009 0.04764,0.005 z m -5.690989,1.85393 c 0.01606,-0.25563 -0.106653,0.50846 -0.08148,0.76347 0.0059,0.0595 0.01751,0.11844 0.02429,0.17787 0.02259,-0.19831 0.02803,-0.47714 0.05719,-0.94134 z m 12.730599,29.03795 c -2.673264,1.29263 -5.34707,2.58437 -8.012138,3.89104 -7.130711,3.5111 -14.200946,7.12679 -21.25506,10.76741 0.21685,0.0154 0.431553,0.0397 0.650718,0.043 2.458139,-0.004 4.920397,-0.0399 7.364229,-0.31614 2.565851,-0.34646 5.127917,-0.78313 7.427878,-1.95705 3.633238,-1.93169 6.92224,-4.33421 10.009407,-6.95017 0.685978,-0.60033 1.37584,-1.20436 2.05867,-1.81894 0.02202,-0.0385 0.0442,-0.0771 0.06621,-0.11558 0.543638,-1.18997 1.1113,-2.36888 1.690088,-3.54355 z" />
    <path
       id="text7"
       style="font-style:normal;font-variant:normal;font-weight:normal;font-stretch:normal;font-size:380.586px;line-height:0;font-family:TypoGraphica;-inkscape-font-specification:TypoGraphica;font-variant-ligatures:normal;font-variant-position:normal;font-variant-caps:normal;font-variant-numeric:normal;font-variant-alternates:normal;font-variant-east-asian:normal;font-feature-settings:normal;font-variation-settings:normal;text-indent:0;text-align:start;text-decoration-line:none;text-decoration-style:solid;text-decoration-color:#000000;letter-spacing:normal;word-spacing:normal;text-transform:none;writing-mode:lr-tb;direction:ltr;text-orientation:mixed;dominant-baseline:auto;baseline-shift:baseline;text-anchor:start;white-space:normal;opacity:1;fill:#5215ff;fill-opacity:1;stroke:none;stroke-width:3.725;stroke-linecap:square;stroke-linejoin:round;stroke-miterlimit:4;stroke-dasharray:none;stroke-dashoffset:0;stroke-opacity:1;stop-color:#000000;stop-opacity:1"
       inkscape:transform-center-x="-1.5701608"
       inkscape:transform-center-y="-109.72092"
       d="m 266.37895,212.20346 c -5.76083,0 -11.33669,1.48517 -16.54002,4.4585 -0.39822,0.21334 -0.74613,0.48517 -1.13137,0.71366 -0.58552,0.23019 -1.18455,0.41904 -1.76105,0.6761 -5.3866,2.67981 -9.56675,6.40004 -12.44716,11.01293 -2.88041,4.61288 -4.27613,9.82016 -4.09285,15.4733 7e-4,0.42393 0.0824,0.83716 0.10359,1.2583 -0.0774,0.58534 -0.20225,1.16064 -0.24984,1.75223 -0.18328,5.65313 1.21245,10.86042 4.09286,15.4733 2.88041,4.61288 7.06055,8.33499 12.44716,11.0148 0.39769,0.21155 0.82555,0.35283 1.2309,0.54652 0.50935,0.3545 0.98518,0.74236 1.51527,1.07612 5.20332,2.97333 10.77919,4.45851 16.54002,4.45851 5.76082,0 11.33669,-1.48518 16.54001,-4.45851 0.39905,-0.21377 0.74739,-0.48655 1.13341,-0.71554 0.58469,-0.22991 1.18332,-0.41752 1.75901,-0.67422 5.38661,-2.67981 9.56675,-6.40004 12.44716,-11.01292 2.88041,-4.61288 4.27614,-9.82017 4.09286,-15.47331 -7.1e-4,-0.42393 -0.0824,-0.83716 -0.10359,-1.2583 0.0774,-0.58534 0.20224,-1.16063 0.24983,-1.75222 0.18328,-5.65314 -1.21244,-10.86043 -4.09285,-15.47331 -2.88041,-4.61288 -7.06056,-8.33499 -12.44716,-11.0148 -0.39795,-0.21168 -0.82529,-0.35459 -1.23091,-0.54839 -0.50903,-0.35426 -0.98552,-0.7407 -1.51527,-1.07425 -5.20332,-2.97333 -10.77919,-4.4585 -16.54001,-4.4585 z"
       transform="scale(0.96156482,1.0399715)"
       sodipodi:nodetypes="scccscccscccscccscccscccs" />
  </g>
</svg>
